<svg id="Layer_1" data-name="Layer 1" xmlns="http://www.w3.org/2000/svg" viewBox="0 0 512 512"><title>square-padlock-locked-glyph</title><path d="M277.33,320A21.33,21.33,0,1,1,256,298.67,21.36,21.36,0,0,1,277.33,320Zm192-128V490.67A21.33,21.33,0,0,1,448,512H64a21.33,21.33,0,0,1-21.33-21.33V192A21.33,21.33,0,0,1,64,170.67h64V128a128,128,0,0,1,256,0v42.67h64A21.33,21.33,0,0,1,469.33,192ZM170.67,170.67H341.33V128a85.33,85.33,0,1,0-170.67,0ZM320,320a64,64,0,1,0-85.33,60.27v46.4a21.33,21.33,0,0,0,42.67,0v-46.4A64.05,64.05,0,0,0,320,320Z"/></svg>